<svg xmlns="http://www.w3.org/2000/svg" viewBox="0 0 539.77 421.79"><defs><style>.cls-1{fill:#080808;}.cls-2{fill:#080a09;}</style></defs><g id="Layer_2" data-name="Layer 2"><g id="Layer_1-2" data-name="Layer 1"><path class="cls-1" d="M223.94,94.52q0-41.73,0-83.47c0-9.74,1.35-11.06,10.85-11q35.73,0,71.47,0c8.44,0,9.79,1.31,9.79,9.9q0,83.22-.06,166.45c0,2.85-1.42,7.1,1.31,8.23,2.4,1,4.21-3.12,6.15-5.05Q375.25,127.79,426.92,76c2.23-2.23,4.35-4.6,6.71-6.7,4.78-4.25,6.24-4.28,10.89.34Q469.35,94.23,494,119l4.22,4.23c4.92,4.94,5,6.48,0,11.47q-33.72,33.77-67.49,67.5c-4.95,5-9.93,9.87-14.77,14.91-1.05,1.08-3.31,2-2.32,3.89.72,1.41,2.71.76,4.15.76,15.5,0,31,0,46.49-.06q33.48,0,67,0c7.14,0,8.46,1.3,8.47,8.44q0,37.74,0,75.47c0,6.89-1.18,8.07-8.24,8.06-40,0-80,.19-120-.25-21.95-.24-43.95-.86-65.44-6.39-15.36-3.94-28.57-11.67-40.31-22.11-8-7.08-15.74-14.36-23.8-21.33-9.11-7.87-15.49-7.86-24.7.1-9.06,7.83-17.74,16.11-26.84,23.9-17.21,14.74-37.74,21.13-59.91,23.5s-44.2,2.49-66.36,2.46c-31.49,0-63,.07-94.47.08C1.6,313.68.05,312.11,0,304q0-36.48,0-73c0-7.77,1.56-9.33,9.42-9.33q56.23,0,112.46,0c1.59,0,3.87.85,4.63-.69,1-2.11-1.57-3-2.74-4.14q-40.95-41.06-82-82c-4.93-4.93-4.89-7.08.07-12.05L95.22,69.47c4.88-4.88,6.5-4.91,11.5.09Q161.85,124.69,217,179.83c1.88,1.88,3.7,5.66,6.27,4.59,2.41-1,.73-4.85.74-7.42q.1-41.24,0-82.48Z"/><path class="cls-2" d="M269.88,421.79H10c-9.15,0-10-.88-9.95-10q0-22.23,0-44.47c0-8.11,1-9.12,9.23-9.12H530c8.74,0,9.84,1.14,9.82,9.74q0,22.48,0,45c0,7.74-1.11,8.85-9,8.85Z"/></g></g></svg>